<svg xmlns="http://www.w3.org/2000/svg" viewBox="0 0 24 24" width="25" height="25"><path fill="currentColor" d="M7.52 21.48C4.25 19.94 1.9 16.76 1.55 13H.05C.56 19.16 5.7 24 12 24l.66-.03-3.8-3.8-1.33 1.32zm.9-6.52a1.67 1.67 0 0 1-.52-.08 1.07 1.07 0 0 1-.4-.24.99.99 0 0 1-.26-.37c-.06-.14-.1-.3-.1-.47h-1.3c0 .36.07.68.2.95a2.21 2.21 0 0 0 .56.69c.24.18.5.32.82.4.3.1.62.15.96.15.37 0 .72-.05 1.03-.15a2.44 2.44 0 0 0 .83-.44 1.98 1.98 0 0 0 .55-.72c.13-.3.2-.6.2-.97 0-.2-.02-.38-.07-.56a1.67 1.67 0 0 0-.23-.51c-.1-.16-.24-.3-.4-.43-.17-.13-.37-.23-.6-.3.2-.1.37-.2.52-.33s.27-.27.37-.42a1.76 1.76 0 0 0 .22-.46c.05-.16.07-.32.07-.48 0-.36-.06-.68-.18-.96a1.78 1.78 0 0 0-.51-.69c-.2-.2-.47-.33-.77-.43C9.1 8.05 8.76 8 8.4 8c-.36 0-.7.05-1 .16-.3.1-.57.26-.8.45a2.25 2.25 0 0 0-.51.67c-.12.26-.18.54-.18.85h1.3c0-.17.03-.32.1-.45a.94.94 0 0 1 .25-.34c.1-.1.23-.17.38-.22s.3-.08.48-.08c.4 0 .7.1.9.3.2.2.3.5.3.86 0 .18-.03.34-.08.5a.87.87 0 0 1-.25.37c-.1.1-.25.18-.4.24s-.36.1-.58.1H7.5v1.03h.77c.22 0 .42.02.6.07s.33.13.45.23a1.18 1.18 0 0 1 .29.4c.07.16.1.35.1.57 0 .4-.12.72-.35.93-.23.23-.55.33-.95.33zm8.55-5.92a3.33 3.33 0 0 0-1.14-.77C15.4 8.1 14.9 8 14.36 8H12v8h2.3c.55 0 1.06-.1 1.5-.27s.84-.43 1.16-.76.57-.73.74-1.2c.17-.47.26-1 .26-1.57v-.4c0-.58-.1-1.1-.26-1.57-.18-.47-.43-.87-.75-1.2zm-.4 3.16a4.37 4.37 0 0 1-.14 1.13c-.1.33-.24.62-.43.85a1.87 1.87 0 0 1-.71.53 2.57 2.57 0 0 1-.99.18h-.9V9.12h.97c.72 0 1.27.23 1.64.7.38.46.57 1.12.57 2v.4zM12 0l-.66.03 3.8 3.8 1.33-1.33c3.27 1.55 5.6 4.72 5.96 8.48h1.5A11.98 11.98 0 0 0 12 0z"/></svg>