<svg xmlns="http://www.w3.org/2000/svg" version="1.2" viewBox="0 0 24 24"><defs/><path fill="currentColor" d="M8.61 17.6c-.52.51-1.34.5-1.85-.01-.51-.52-.5-1.34.01-1.85a1.31 1.31 0 012.23.92c.01.36-.14.7-.39.94zM5 11.33V11c0-.09.03-.17.09-.23l2-2c.06-.06.14-.09.23-.09H9v2.67H5v-.02zm12.93 6.27c-.52.5-1.35.49-1.85-.03s-.49-1.35.03-1.85a1.31 1.31 0 012.22.94c0 .36-.14.7-.4.94zM21 5.34c0-.36-.3-.66-.67-.67H9.67a.69.69 0 00-.67.67v2H7.34c-.21.01-.42.06-.61.14-.2.08-.38.19-.53.33L4.14 9.87c-.09.09-.17.2-.23.31-.06.1-.11.21-.15.32-.04.13-.06.26-.07.39v4.45c-.37 0-.68.29-.69.66a.66.66 0 000 .28c.03.08.07.14.14.19l.17.12c.07.04.16.06.24.06H5c0 1.47 1.2 2.67 2.67 2.67s2.67-1.2 2.67-2.67h4a2.67 2.67 0 002.69 2.65c.7 0 1.37-.28 1.86-.77.51-.49.79-1.17.78-1.88h.73c.08 0 .17-.02.24-.06l.17-.12c.09-.04.15-.11.19-.2.01-.09.01-.18 0-.27V5.34z"/></svg>