<svg version="1.2" xmlns="http://www.w3.org/2000/svg" xmlns:xlink="http://www.w3.org/1999/xlink" viewBox="0 0 24 24" width="24" height="24"><g><path fill="currentColor" d="M9.96,17.95c0-0.73-0.6-1.33-1.33-1.33c-0.35,0-0.69,0.14-0.94,0.39c-0.57,0.46-0.66,1.3-0.2,1.87  s1.3,0.66,1.87,0.2c0.07-0.06,0.14-0.13,0.2-0.2C9.82,18.64,9.96,18.3,9.96,17.95L9.96,17.95z M19.29,17.95  c0.01-0.75-0.59-1.36-1.33-1.37s-1.36,0.59-1.37,1.33s0.59,1.36,1.33,1.37c0.36,0.01,0.71-0.14,0.97-0.39  C19.15,18.65,19.3,18.31,19.29,17.95L19.29,17.95z M20.62,6.62c-0.01-0.36-0.3-0.66-0.66-0.67H7.45V5.68l-0.1-0.3  C7.33,5.29,7.3,5.19,7.26,5.1C7.23,5.01,7.19,4.93,7.13,4.85c-0.05-0.06-0.1-0.12-0.17-0.16c-0.09-0.05-0.2-0.07-0.3-0.07h-2.7  C3.6,4.67,3.34,5,3.38,5.37c0.04,0.31,0.28,0.55,0.58,0.58h2.13l1.87,8.57L7.8,14.83l-0.22,0.42c-0.06,0.12-0.12,0.24-0.17,0.37  c-0.05,0.1-0.07,0.22-0.08,0.33c0.01,0.37,0.3,0.66,0.67,0.67h10.62c0.37-0.05,0.63-0.38,0.58-0.75c-0.04-0.31-0.28-0.55-0.58-0.58  H9.04c0.12-0.21,0.21-0.43,0.25-0.67c-0.03-0.25-0.08-0.49-0.14-0.73l10.87-1.27c0.16-0.02,0.31-0.1,0.42-0.22  c0.12-0.12,0.18-0.28,0.18-0.45V6.62L20.62,6.62z"/></g></svg>