<svg xmlns="http://www.w3.org/2000/svg" overflow="visible" preserveAspectRatio="none" viewBox="0 0 24 24" width="20" height="20"><path fill="currentColor" d="M15 3.38c-.1-.1-.24-.2-.37-.3V8h4.9c-.08-.13-.18-.26-.3-.37L15 3.38zM13.62 9a.99.99 0 0 1-.29-.71V2.67H5c-.55 0-1 .45-1 1v16.66c0 .55.45 1 1 1h14c.55 0 1-.45 1-1v-11h-5.67a1.01 1.01 0 0 1-.71-.33zm2.28 8.2a.34.34 0 0 1-.24.09H8.34A.32.32 0 0 1 8 17v-.67c-.01-.18.13-.32.3-.33h7.36c.18-.01.32.13.33.3v.7a.31.31 0 0 1-.1.24v-.05zm.1-2.86c.01.18-.13.32-.3.33H8.34c-.18.01-.33-.12-.34-.3v-.7c-.01-.18.13-.32.3-.33h7.35c.18-.01.32.13.33.3v.7-.01zm-.1-2.42a.34.34 0 0 1-.24.09H8.34c-.18.01-.33-.12-.34-.3V11c-.01-.18.13-.32.3-.33h7.35c.18-.01.33.12.34.3v.7a.31.31 0 0 1-.1.24z"/></svg>